<svg width="29" height="23" viewBox="0 0 29 23" fill="none" xmlns="http://www.w3.org/2000/svg">
<g clip-path="url(#clip0_804_2764)">
<path d="M6.28356 6.35817C5.48399 6.35817 4.83357 5.48005 4.83357 4.40072C4.82325 3.75898 3.8778 3.75635 3.86691 4.40072C3.86691 5.48005 3.2165 6.35817 2.41692 6.35817C2.15 6.35817 1.93359 6.57728 1.93359 6.84753C1.93359 7.11778 2.15 7.33689 2.41692 7.33689C3.2165 7.33689 3.86691 8.21502 3.86691 9.29434C3.87715 9.93612 4.82283 9.93875 4.83357 9.29431C4.83357 8.21502 5.48399 7.33689 6.28356 7.33689C6.91769 7.32632 6.91973 6.36913 6.28356 6.35817ZM4.35024 7.5345C4.18433 7.26641 3.98184 7.03367 3.75151 6.84753C3.98184 6.66139 4.18433 6.42866 4.35024 6.16056C4.51615 6.42866 4.71864 6.66139 4.94898 6.84753C4.71864 7.03367 4.51615 7.26641 4.35024 7.5345Z" fill="currentColor"/>
<path d="M12.5668 14.6773C11.7672 14.6773 11.1168 13.7994 11.1168 12.7199C11.1066 12.0781 10.1609 12.0755 10.1501 12.7199C10.1501 13.7994 9.4997 14.6773 8.70013 14.6773C8.43321 14.6773 8.2168 14.8962 8.2168 15.1667C8.2168 15.4372 8.43321 15.656 8.70013 15.656C9.4997 15.656 10.1501 16.5339 10.1501 17.6135C10.1604 18.2553 11.106 18.2579 11.1168 17.6135C11.1168 16.5339 11.7672 15.656 12.5668 15.656C13.2009 15.6456 13.203 14.6881 12.5668 14.6773ZM10.6334 15.8534C10.4675 15.5853 10.265 15.3526 10.0347 15.1667C10.265 14.9808 10.4675 14.748 10.6334 14.4799C10.7994 14.748 11.0018 14.9808 11.2322 15.1667C11.0018 15.3526 10.7994 15.5853 10.6334 15.8534Z" fill="currentColor"/>
<path d="M28.4048 2.5981C27.9644 2.2608 27.3971 2.24903 26.8984 2.45369C26.432 0.991669 24.728 0.120351 23.2848 0.626591L16.0353 2.9754C15.3849 3.18535 14.8557 3.6124 14.5001 4.15833C14.1446 3.6124 13.6156 3.18535 12.9654 2.9754L5.71593 0.626797C4.27146 0.120024 2.56662 0.992472 2.10131 2.45557C1.15159 2.00728 -0.0198889 2.69508 0.000256286 3.78426L0.000227362 17.3884C0.000227362 18.0316 0.406384 18.5932 1.00795 18.7843L12.3983 22.4769C13.047 22.8147 13.7714 22.9965 14.5001 22.9965C15.4273 22.9965 16.1562 22.7165 16.6179 22.4716L27.992 18.7867C28.595 18.5912 29 18.0292 29 17.3884V3.78399C29 3.30992 28.7831 2.87767 28.4048 2.5981ZM15.9501 21.7119C15.2051 22.0877 13.8934 22.1301 13.0501 21.7109V18.3515C14.1204 18.7004 15.0515 18.6467 15.9501 18.3519V21.7119ZM15.9501 17.3039C15.1151 17.6734 14.1017 17.7583 13.0501 17.2963V16.6348C13.0501 16.3643 12.8337 16.1454 12.5668 16.1454C12.2999 16.1454 12.0835 16.3643 12.0835 16.6348V21.3472L1.30035 17.8515C1.10093 17.7879 0.966886 17.602 0.966886 17.3884V3.78423C0.958539 3.4607 1.29508 3.2102 1.59842 3.32067L3.17892 3.82963C3.78783 4.01436 4.07381 3.10147 3.47204 2.89678L3.02228 2.75201C3.34312 1.7922 4.46619 1.22425 5.42096 1.55895L12.6714 3.90776C13.3608 4.13046 13.8535 4.71277 13.9814 5.41204C13.3843 5.48089 12.8887 5.65553 12.5257 5.83095L5.9281 3.69462C5.67204 3.61242 5.40182 3.75436 5.3204 4.0117C5.23922 4.26905 5.3794 4.54455 5.63357 4.62699L12.0835 6.71538V13.6986C12.0835 13.9691 12.2999 14.1879 12.5668 14.1879C12.8337 14.1879 13.0501 13.9691 13.0501 13.6986V11.9898C14.1205 12.3386 15.0515 12.285 15.9501 11.9902L15.9501 17.3039ZM15.9501 10.9422C15.1151 11.3117 14.1017 11.3966 13.0501 10.9346V10.0323C14.1204 10.3812 15.0515 10.3276 15.9501 10.0328V10.9422ZM15.9501 8.98474C15.1151 9.35424 14.1017 9.43919 13.0501 8.97719V6.66401C13.7963 6.28806 15.106 6.24561 15.9501 6.66496V8.98474ZM16.4627 5.83477C16.0064 5.61644 15.5191 5.46997 15.0189 5.41193C15.1468 4.71272 15.6396 4.13047 16.3294 3.90777L23.5798 1.55869C24.5333 1.22437 25.6578 1.79214 25.978 2.75189L16.4627 5.83477ZM28.0333 17.3884C28.0333 17.602 27.8981 17.7893 27.697 17.8548L16.9168 21.3472V6.71538L27.4027 3.31805C27.5517 3.26954 27.7088 3.29582 27.8349 3.38877C27.9611 3.48196 28.0333 3.62605 28.0333 3.78399L28.0333 17.3884Z" fill="currentColor"/>
<path d="M22.4751 8.80498C20.6095 8.80498 19.0918 10.3419 19.0918 12.2305C19.262 16.7687 25.6889 16.7674 25.8584 12.2305C25.8584 10.3419 24.3407 8.80498 22.4751 8.80498ZM22.4751 14.6773C21.1426 14.6773 20.0585 13.5796 20.0585 12.2305C20.172 8.99216 24.7786 8.993 24.8918 12.2305C24.8918 13.5796 23.8076 14.6773 22.4751 14.6773Z" fill="currentColor"/>
<path d="M23.1951 12.393C22.8274 12.8088 22.1227 12.8088 21.7551 12.393C21.5764 12.1923 21.2715 12.1741 21.0725 12.3557C20.4504 13.1038 21.8705 13.73 22.4751 13.6986C23.0798 13.7305 24.4996 13.1033 23.8777 12.3557C23.6787 12.1746 23.3731 12.1918 23.1951 12.393Z" fill="currentColor"/>
<path d="M22.475 8.31562C22.7419 8.31562 22.9584 8.09651 22.9584 7.82626V7.3369C22.9584 7.06665 22.7419 6.84753 22.475 6.84753C22.2081 6.84753 21.9917 7.06665 21.9917 7.3369V7.82626C21.9917 8.09651 22.2081 8.31562 22.475 8.31562Z" fill="currentColor"/>
<path d="M19.0574 9.46209C19.5064 9.91277 20.1861 9.22425 19.7409 8.76983L19.3989 8.42387C18.9499 7.97393 18.2702 8.66171 18.7155 9.11609L19.0574 9.46209Z" fill="currentColor"/>
<path d="M18.125 11.7411H17.6417C17.0066 11.7519 17.0064 12.7092 17.6417 12.7199H18.125C18.7602 12.7092 18.7604 11.7518 18.125 11.7411Z" fill="currentColor"/>
<path d="M19.0576 14.9989L18.7157 15.3449C18.2706 15.7991 18.9502 16.4877 19.3992 16.0369L19.7411 15.6909C20.1862 15.2369 19.5066 14.5481 19.0576 14.9989Z" fill="currentColor"/>
<path d="M22.475 16.1454C22.2081 16.1454 21.9917 16.3643 21.9917 16.6348V17.1241C21.9917 17.3946 22.2081 17.6135 22.475 17.6135C22.7419 17.6135 22.9584 17.3946 22.9584 17.1241V16.6348C22.9584 16.3643 22.7419 16.1454 22.475 16.1454Z" fill="currentColor"/>
<path d="M25.8926 14.9989C25.4438 14.5484 24.7638 15.2367 25.2092 15.6909L25.5511 16.0369C25.9999 16.4876 26.6798 15.7991 26.2345 15.3449L25.8926 14.9989Z" fill="currentColor"/>
<path d="M27.3084 11.7411H26.8251C26.1899 11.7519 26.1897 12.7092 26.8251 12.7199H27.3084C27.9436 12.7092 27.9437 11.7518 27.3084 11.7411Z" fill="currentColor"/>
<path d="M25.5507 9.60545C25.8101 9.6358 26.0649 9.2689 26.2344 9.11606C26.6795 8.66183 26.0001 7.97375 25.551 8.4239L25.209 8.76986C24.9008 9.06048 25.137 9.62051 25.5507 9.60545Z" fill="currentColor"/>
<path d="M23.4418 11.7411C24.0767 11.7287 24.0766 10.7748 23.4418 10.7624C22.8068 10.7748 22.8069 11.7289 23.4418 11.7411Z" fill="currentColor"/>
<path d="M21.5084 11.7411C22.1433 11.7287 22.1432 10.7748 21.5084 10.7624C20.8734 10.7748 20.8736 11.7289 21.5084 11.7411Z" fill="currentColor"/>
</g>
<defs>
<clipPath id="clip0_804_2764">
<rect width="29" height="23" fill="white"/>
</clipPath>
</defs>
</svg>
