<svg width="431" height="438" viewBox="0 0 431 438" fill="none" xmlns="http://www.w3.org/2000/svg">
<path fill-rule="evenodd" clip-rule="evenodd" d="M235.777 -66.7198C290.936 -142.155 206.757 -285.409 283.972 -338.049C341.65 -377.369 404.691 -266.355 444.176 -208.791C474.616 -164.415 458.617 -103.8 478.856 -53.9384C492.742 -19.7261 538.557 -2.49031 542.802 34.1881C547.047 70.8736 501.1 97.6862 500.676 134.614C499.826 208.558 569.287 281.712 539.182 349.255C512.576 408.945 431.025 446.71 366.696 435.202C298.885 423.07 256.658 352.114 222.089 292.528C197.391 249.955 236.42 182.787 200.648 148.982C151.349 102.394 44.6953 149.038 9.13102 91.2809C-19.2277 45.2255 31.5717 -22.6154 75.9406 -53.5462C120.555 -84.6484 203.676 -22.8183 235.777 -66.7198Z" fill="#DBECF7"/>
</svg>
