<svg width="356" height="719" viewBox="0 0 356 719" fill="none" xmlns="http://www.w3.org/2000/svg">
<path fill-rule="evenodd" clip-rule="evenodd" d="M82.5786 3.03151C32.2235 10.0711 -21.9446 30.8352 -51.0558 72.5212C-81.003 115.404 -60.8455 175.04 -73.0594 225.899C-79.9751 254.696 -90.7492 282.113 -107.289 306.68C-134.109 346.513 -187.214 368.255 -200.058 414.526C-213.075 461.421 -198.672 513.363 -176.719 556.798C-153.224 603.285 -115.632 642.174 -71.2353 669.413C-25.0029 697.779 29.7728 728.28 82.5786 715.887C136.999 703.116 171.301 649.03 205.155 604.549C231.102 570.459 235.551 525.926 255.867 488.208C272.39 457.532 298.378 434.029 313.825 402.796C332.096 365.854 357.023 329.008 354.964 287.846C352.86 245.787 320.257 212.847 302.414 174.703C279.931 126.638 277.327 65.1193 235.505 32.4603C194.072 0.104839 134.642 -4.24691 82.5786 3.03151Z" fill="#FBEBE5"/>
</svg>
