<svg width="507" height="571" viewBox="0 0 507 571" fill="none" xmlns="http://www.w3.org/2000/svg">
<path fill-rule="evenodd" clip-rule="evenodd" d="M236.292 115.029C293.225 125.077 347.111 56.3178 401.137 76.9074C456.57 98.0331 485.287 160.595 503.825 216.986C522.413 273.529 542.388 345.343 504.455 391.188C465.019 438.849 380.127 397.101 327.679 429.872C281.913 458.468 286.287 538.443 236.292 558.742C182.645 580.525 108.147 577.339 68.5146 535.102C28.2575 492.199 55.0503 422.37 53.1323 363.546C51.8257 323.475 62.5065 286.311 59.1 246.364C52.1629 165.014 -42.5593 58.7597 22.9982 10.1683C88.2516 -38.1977 156.326 100.915 236.292 115.029Z" fill="#F7F0DF"/>
</svg>
